<?xml version="1.0" encoding="utf-8"?>
<!-- Generator: Adobe Illustrator 17.0.0, SVG Export Plug-In . SVG Version: 6.00 Build 0)  -->
<!DOCTYPE svg PUBLIC "-//W3C//DTD SVG 1.1//EN" "http://www.w3.org/Graphics/SVG/1.1/DTD/svg11.dtd">
<svg version="1.1" xmlns="http://www.w3.org/2000/svg" xmlns:xlink="http://www.w3.org/1999/xlink" x="0px" y="0px"
	 width="355.206px" height="145.93px" viewBox="0 0 355.206 145.93" enable-background="new 0 0 355.206 145.93"
	 xml:space="preserve">
<g id="Calque_1">
	<path fill="#F2EFE4" d="M75.553,25.598l-5.664,4.346c-3.125-4.069-6.877-7.153-11.255-9.253c-4.378-2.1-9.188-3.149-14.429-3.149
		c-5.729,0-11.035,1.375-15.918,4.126c-4.883,2.751-8.667,6.445-11.353,11.084s-4.028,9.855-4.028,15.649
		c0,8.757,3.003,16.064,9.009,21.924s13.582,8.789,22.729,8.789c10.059,0,18.473-3.938,25.244-11.816l5.664,4.297
		c-3.581,4.558-8.049,8.081-13.403,10.571c-5.355,2.49-11.336,3.735-17.944,3.735c-12.565,0-22.478-4.183-29.736-12.549
		c-6.087-7.063-9.131-15.592-9.131-25.586c0-10.514,3.687-19.36,11.06-26.538s16.609-10.767,27.71-10.767
		c6.706,0,12.76,1.327,18.164,3.979C67.675,17.094,72.103,20.813,75.553,25.598z"/>
	<path fill="#F2EFE4" d="M122.162,10.461c10.879,0,19.983,3.63,27.312,10.889c7.329,7.259,10.994,16.195,10.994,26.807
		c0,10.515-3.657,19.434-10.97,26.758c-7.312,7.324-16.229,10.986-26.75,10.986c-10.651,0-19.642-3.646-26.971-10.938
		c-7.329-7.292-10.993-16.113-10.993-26.465c0-6.901,1.669-13.297,5.008-19.189c3.339-5.892,7.891-10.506,13.656-13.843
		C109.213,12.13,115.451,10.461,122.162,10.461z M122.479,17.444c-5.314,0-10.353,1.385-15.112,4.154
		c-4.761,2.77-8.478,6.5-11.151,11.19c-2.673,4.691-4.01,9.92-4.01,15.686c0,8.536,2.958,15.744,8.876,21.624
		c5.917,5.881,13.05,8.82,21.397,8.82c5.575,0,10.734-1.352,15.479-4.056c4.744-2.704,8.444-6.401,11.102-11.092
		c2.657-4.691,3.986-9.904,3.986-15.638c0-5.701-1.329-10.856-3.986-15.466s-6.399-8.298-11.224-11.068
		C133.01,18.828,127.891,17.444,122.479,17.444z"/>
	<path fill="#F2EFE4" d="M241.766,25.598l-5.664,4.346c-3.125-4.069-6.877-7.153-11.255-9.253c-4.378-2.1-9.188-3.149-14.429-3.149
		c-5.729,0-11.035,1.375-15.918,4.126c-4.883,2.751-8.667,6.445-11.353,11.084s-4.028,9.855-4.028,15.649
		c0,8.757,3.003,16.064,9.009,21.924s13.582,8.789,22.729,8.789c10.059,0,18.473-3.938,25.244-11.816l5.664,4.297
		c-3.581,4.558-8.049,8.081-13.403,10.571c-5.355,2.49-11.336,3.735-17.944,3.735c-12.565,0-22.478-4.183-29.736-12.549
		c-6.087-7.063-9.131-15.592-9.131-25.586c0-10.514,3.687-19.36,11.06-26.538s16.609-10.767,27.71-10.767
		c6.706,0,12.76,1.327,18.164,3.979C233.888,17.094,238.316,20.813,241.766,25.598z"/>
	<path fill="#F2EFE4" d="M341.078,20.463c3.748,3.423,6.385,7.599,7.911,12.529c1.525,4.93,1.726,9.963,0.602,15.1
		c-1.686,7.706-4.612,18.182-5.514,18.428c-3.929,1.072-20.909,4.965-28.838,3.231c-7.831-1.714-13.873-5.892-18.123-12.535
		s-5.52-13.878-3.808-21.705c1.728-7.899,5.912-13.954,12.55-18.164c6.637-4.21,14.006-5.429,22.104-3.657
		C332.959,14.783,337.33,17.04,341.078,20.463z"/>
	
		<ellipse transform="matrix(0.783 0.6221 -0.6221 0.783 90.3878 -187.5947)" fill="#FFFFFF" cx="314.037" cy="35.738" rx="14.959" ry="20.962"/>
	
		<ellipse transform="matrix(0.783 0.6221 -0.6221 0.783 89.7269 -187.3817)" fill="#DED7CF" cx="313.401" cy="34.897" rx="11.037" ry="15.466"/>
	<ellipse cx="355.206" cy="59.511" rx="0.061" ry="0"/>
	<path fill="#F2EFE4" d="M265.392,13.838c9.627-2.106,18.387-0.657,26.277,4.348c7.891,5.005,12.865,12.203,14.92,21.594
		c2.036,9.305,0.526,17.906-4.527,25.803c-5.053,7.897-12.235,12.865-21.545,14.902c-9.426,2.062-29.612-2.567-34.283-3.841
		c-1.072-0.292-4.551-12.747-6.555-21.907c-1.336-6.107-1.097-12.091,0.716-17.951c1.814-5.86,4.949-10.825,9.405-14.894
		C254.256,17.822,259.453,15.138,265.392,13.838z"/>
	
		<ellipse transform="matrix(-0.783 0.6221 -0.6221 -0.783 527.6167 -103.9817)" fill="#FFFFFF" cx="281.948" cy="40.05" rx="17.784" ry="24.92"/>
	
		<ellipse transform="matrix(-0.783 0.6221 -0.6221 -0.783 528.3423 -106.234)" fill="#DED7CF" cx="282.703" cy="39.05" rx="13.121" ry="18.386"/>
	<ellipse fill="#4F4F4F" cx="233.005" cy="68.312" rx="0.073" ry="0"/>
	<g>
		<path fill="#F2EFE4" d="M8.339,123.915c0-1.8,0.339-3.47,1.02-5.01c0.68-1.539,1.599-2.859,2.76-3.96
			c1.16-1.1,2.52-1.96,4.08-2.58s3.22-0.93,4.98-0.93c1.4,0,2.67,0.17,3.81,0.51s2.109,0.73,2.91,1.17
			c0.919,0.479,1.74,1.02,2.46,1.62c0.159,0.16,0.159,0.32,0,0.479l-0.24,0.24c-0.2,0.201-0.4,0.18-0.6-0.06
			c-0.641-0.52-1.38-1-2.22-1.44c-0.72-0.36-1.59-0.689-2.61-0.99c-1.02-0.3-2.19-0.449-3.51-0.449c-1.6,0-3.12,0.28-4.56,0.84
			c-1.44,0.561-2.7,1.35-3.78,2.37c-1.08,1.02-1.93,2.22-2.55,3.6c-0.621,1.38-0.93,2.91-0.93,4.59s0.32,3.24,0.96,4.68
			c0.639,1.44,1.509,2.671,2.61,3.69c1.1,1.02,2.36,1.82,3.78,2.4c1.419,0.58,2.91,0.869,4.47,0.869c1.32,0,2.52-0.188,3.6-0.569
			c1.08-0.38,2.02-0.811,2.82-1.29c0.92-0.56,1.72-1.2,2.4-1.92c0.159-0.159,0.319-0.181,0.48-0.061l0.3,0.301
			c0.12,0.16,0.14,0.28,0.06,0.359c-0.72,0.801-1.581,1.521-2.58,2.16c-0.84,0.561-1.86,1.05-3.06,1.47
			c-1.2,0.42-2.541,0.63-4.02,0.63c-1.72,0-3.351-0.32-4.89-0.96c-1.541-0.639-2.901-1.52-4.08-2.64
			c-1.181-1.119-2.121-2.46-2.82-4.02C8.688,127.455,8.339,125.756,8.339,123.915z"/>
		<path fill="#F2EFE4" d="M58.078,112.455c0-0.279,0.14-0.42,0.42-0.42h0.24c0.279,0,0.42,0.141,0.42,0.42v3.18
			c0.279-0.399,0.66-0.849,1.14-1.35c0.48-0.5,1.05-0.96,1.71-1.38s1.399-0.77,2.22-1.05c0.82-0.279,1.73-0.42,2.73-0.42
			c0.72,0,1.359,0.06,1.92,0.18c0.56,0.12,1.02,0.24,1.38,0.36c0.439,0.16,0.819,0.34,1.14,0.54c0.24,0.16,0.279,0.34,0.12,0.539
			l-0.18,0.301c-0.12,0.2-0.3,0.239-0.54,0.12c-0.28-0.16-0.621-0.32-1.02-0.48c-0.321-0.12-0.72-0.229-1.2-0.33
			c-0.48-0.1-1.02-0.149-1.62-0.149c-1.2,0-2.261,0.22-3.18,0.659c-0.921,0.441-1.71,0.951-2.37,1.53
			c-0.66,0.58-1.17,1.14-1.53,1.68c-0.36,0.54-0.6,0.891-0.72,1.051v18.18c0,0.28-0.141,0.42-0.42,0.42h-0.24
			c-0.28,0-0.42-0.14-0.42-0.42V112.455z"/>
		<path fill="#F2EFE4" d="M95.459,124.455c0.04,1.561,0.31,3.021,0.81,4.38c0.5,1.36,1.209,2.53,2.13,3.51
			c0.919,0.981,2.029,1.761,3.33,2.341c1.3,0.58,2.77,0.869,4.41,0.869c1.92,0,3.59-0.289,5.01-0.869
			c1.419-0.58,2.469-1.149,3.15-1.71c0.2-0.16,0.36-0.14,0.48,0.06l0.24,0.36c0.08,0.12,0.04,0.261-0.12,0.42
			c-0.761,0.561-1.911,1.17-3.45,1.83c-1.541,0.659-3.311,0.989-5.31,0.989c-1.84,0-3.49-0.33-4.95-0.989
			c-1.461-0.66-2.7-1.561-3.72-2.7c-1.02-1.141-1.8-2.49-2.34-4.05c-0.54-1.561-0.81-3.22-0.81-4.98c0-1.72,0.27-3.339,0.81-4.86
			c0.54-1.52,1.32-2.85,2.34-3.989c1.02-1.141,2.259-2.03,3.72-2.67c1.459-0.64,3.109-0.96,4.95-0.96c1.6,0,3.069,0.27,4.41,0.81
			c1.339,0.54,2.49,1.29,3.45,2.25s1.71,2.121,2.25,3.48c0.54,1.36,0.81,2.84,0.81,4.439c0,0.201-0.021,0.51-0.06,0.93
			c-0.04,0.421-0.1,0.711-0.18,0.87c-0.081,0.16-0.201,0.24-0.36,0.24H95.459z M115.92,123.435c0.039-0.2,0.06-0.391,0.06-0.57
			s0-0.33,0-0.45c0-1.479-0.25-2.82-0.75-4.02c-0.5-1.2-1.19-2.24-2.07-3.12c-0.88-0.88-1.92-1.561-3.12-2.04
			c-1.2-0.48-2.5-0.72-3.9-0.72c-1.641,0-3.11,0.28-4.41,0.84c-1.3,0.561-2.4,1.33-3.3,2.31c-0.9,0.98-1.611,2.141-2.13,3.48
			c-0.521,1.34-0.801,2.77-0.84,4.29H115.92z"/>
		<path fill="#F2EFE4" d="M141.958,128.535c0-1.2,0.25-2.3,0.75-3.3c0.5-1,1.209-1.86,2.13-2.58c0.919-0.72,2.029-1.29,3.33-1.71
			c1.3-0.42,2.75-0.63,4.35-0.63c1.479,0,2.859,0.17,4.14,0.51c1.28,0.34,2.259,0.63,2.94,0.87v-2.22c0-2.4-0.471-4.16-1.41-5.28
			c-0.94-1.119-2.69-1.68-5.25-1.68c-1.161,0-2.19,0.1-3.09,0.3s-1.67,0.4-2.31,0.6c-0.72,0.28-1.36,0.58-1.92,0.9
			c-0.16,0.08-0.27,0.1-0.33,0.06c-0.06-0.039-0.13-0.1-0.21-0.18l-0.18-0.3c-0.081-0.16-0.1-0.271-0.06-0.33
			c0.039-0.061,0.099-0.11,0.18-0.15c0.6-0.36,1.299-0.68,2.1-0.96c0.68-0.24,1.509-0.47,2.49-0.689
			c0.979-0.22,2.089-0.33,3.33-0.33c2.919,0,4.94,0.659,6.06,1.979c1.12,1.32,1.68,3.341,1.68,6.061v16.14
			c0,0.28-0.141,0.42-0.42,0.42h-0.24c-0.28,0-0.42-0.14-0.42-0.42v-2.7c-0.48,0.4-1.041,0.82-1.68,1.26
			c-0.64,0.441-1.36,0.841-2.16,1.2c-0.801,0.36-1.661,0.66-2.58,0.9c-0.921,0.24-1.881,0.359-2.88,0.359
			c-1.161,0-2.25-0.189-3.27-0.569s-1.911-0.909-2.67-1.59c-0.761-0.68-1.35-1.521-1.77-2.521
			C142.168,130.956,141.958,129.815,141.958,128.535z M143.038,128.535c0,2.24,0.7,3.971,2.1,5.19c1.4,1.22,3.12,1.829,5.16,1.829
			c1.08,0,2.12-0.149,3.12-0.449c1-0.301,1.91-0.66,2.73-1.08c0.82-0.42,1.52-0.87,2.1-1.351c0.58-0.479,1.029-0.899,1.35-1.26
			v-8.64c-0.201-0.04-0.54-0.14-1.02-0.3s-1.03-0.32-1.65-0.48c-0.621-0.159-1.311-0.3-2.07-0.42c-0.761-0.12-1.541-0.18-2.34-0.18
			c-2.88,0-5.181,0.67-6.9,2.01C143.898,124.746,143.038,126.456,143.038,128.535z"/>
		<path fill="#F2EFE4" d="M189.838,113.115h-2.52c-0.24,0-0.36-0.14-0.36-0.42v-0.24c0-0.279,0.12-0.42,0.36-0.42h2.52v-6.48
			c0-0.279,0.12-0.42,0.36-0.42h0.24c0.28,0,0.42,0.141,0.42,0.42v6.48h9.78c0.279,0,0.42,0.141,0.42,0.42v0.24
			c0,0.28-0.141,0.42-0.42,0.42h-9.78v16.5c0,0.84,0.03,1.62,0.09,2.34s0.229,1.35,0.51,1.89c0.279,0.54,0.71,0.96,1.29,1.261
			c0.58,0.3,1.39,0.449,2.43,0.449c0.639,0,1.299-0.069,1.98-0.21c0.68-0.14,1.32-0.319,1.92-0.54c0.6-0.219,1.13-0.439,1.59-0.659
			c0.459-0.22,0.79-0.391,0.99-0.511c0.24-0.159,0.399-0.119,0.48,0.12l0.18,0.36c0.039,0.16,0,0.3-0.12,0.42
			c-0.201,0.12-0.54,0.3-1.02,0.54s-1.041,0.479-1.68,0.72c-0.64,0.24-1.34,0.439-2.1,0.601c-0.76,0.159-1.5,0.239-2.22,0.239
			c-1.32,0-2.34-0.18-3.06-0.54c-0.72-0.359-1.25-0.849-1.59-1.47c-0.34-0.619-0.54-1.359-0.6-2.22c-0.06-0.859-0.09-1.79-0.09-2.79
			V113.115z"/>
		<path fill="#F2EFE4" d="M228.297,99.615c-0.36,0-0.65-0.12-0.87-0.36c-0.22-0.239-0.33-0.52-0.33-0.84
			c0-0.319,0.11-0.609,0.33-0.87c0.22-0.26,0.51-0.39,0.87-0.39c0.32,0,0.6,0.13,0.84,0.39c0.24,0.261,0.36,0.551,0.36,0.87
			c0,0.32-0.12,0.601-0.36,0.84C228.897,99.495,228.617,99.615,228.297,99.615z M227.697,112.455c0-0.279,0.14-0.42,0.42-0.42h0.24
			c0.279,0,0.42,0.141,0.42,0.42v23.16c0,0.28-0.141,0.42-0.42,0.42h-0.24c-0.28,0-0.42-0.14-0.42-0.42V112.455z"/>
		<path fill="#F2EFE4" d="M256.017,123.975c0-1.72,0.309-3.351,0.93-4.891c0.62-1.539,1.479-2.869,2.58-3.99
			c1.1-1.119,2.39-2.01,3.87-2.67c1.479-0.659,3.08-0.989,4.8-0.989c1.719,0,3.319,0.33,4.8,0.989c1.479,0.66,2.77,1.551,3.87,2.67
			c1.1,1.121,1.959,2.451,2.58,3.99c0.619,1.54,0.93,3.171,0.93,4.891c0,1.76-0.311,3.41-0.93,4.949
			c-0.621,1.541-1.48,2.88-2.58,4.021c-1.101,1.14-2.391,2.04-3.87,2.7c-1.48,0.659-3.081,0.989-4.8,0.989
			c-1.721,0-3.321-0.33-4.8-0.989c-1.48-0.66-2.77-1.561-3.87-2.7c-1.101-1.141-1.96-2.479-2.58-4.021
			C256.326,127.385,256.017,125.735,256.017,123.975z M257.097,123.975c0,1.641,0.29,3.16,0.87,4.56c0.58,1.4,1.359,2.62,2.34,3.66
			c0.979,1.04,2.149,1.859,3.51,2.46c1.36,0.6,2.82,0.899,4.38,0.899c1.56,0,3.02-0.3,4.38-0.899c1.359-0.601,2.529-1.42,3.51-2.46
			c0.979-1.04,1.76-2.26,2.34-3.66c0.58-1.399,0.87-2.919,0.87-4.56c0-1.6-0.29-3.091-0.87-4.471s-1.36-2.589-2.34-3.63
			c-0.98-1.039-2.15-1.859-3.51-2.46c-1.36-0.6-2.82-0.899-4.38-0.899c-1.561,0-3.021,0.3-4.38,0.899
			c-1.36,0.601-2.53,1.421-3.51,2.46c-0.981,1.041-1.761,2.25-2.34,3.63C257.386,120.884,257.097,122.376,257.097,123.975z"/>
		<path fill="#F2EFE4" d="M307.617,112.455c0-0.279,0.14-0.42,0.42-0.42h0.239c0.28,0,0.421,0.141,0.421,0.42v3.3
			c0.359-0.399,0.84-0.849,1.439-1.35c0.601-0.5,1.29-0.97,2.07-1.41c0.78-0.439,1.659-0.81,2.64-1.11
			c0.979-0.3,2.05-0.449,3.21-0.449c3.24,0,5.71,0.95,7.41,2.85c1.7,1.9,2.55,4.671,2.55,8.31v13.021c0,0.28-0.141,0.42-0.42,0.42
			h-0.24c-0.28,0-0.42-0.14-0.42-0.42v-13.021c0-3.279-0.76-5.779-2.279-7.5c-1.521-1.719-3.721-2.579-6.601-2.579
			c-1.319,0-2.53,0.23-3.63,0.689c-1.101,0.46-2.061,0.971-2.88,1.53c-0.82,0.561-1.47,1.109-1.95,1.649
			c-0.479,0.54-0.78,0.891-0.899,1.051v18.18c0,0.28-0.141,0.42-0.421,0.42h-0.239c-0.28,0-0.42-0.14-0.42-0.42V112.455z"/>
	</g>
	<path fill="none" d="M306.911,90.247c0.138-1.082,0.233-2.169,0.347-3.253c0.032-0.002,0.065-0.005,0.097-0.007
		c0.069,0.376,0.142,0.75,0.206,1.127c0.081,0.478,0.381,0.672,0.759,0.532c0.214-0.079,0.474-0.121,0.694-0.079
		c0.315,0.06,0.446-0.065,0.507-0.33c0.14-0.619,0.272-1.24,0.412-1.877c0.51-0.043,0.97,0.075,1.253,0.66
		c0.13,0.268,0.411,0.468,0.636,0.684c0.517,0.496,1.07,0.956,1.556,1.48c0.401,0.433,0.777,0.891,1.151,1.35h0.829
		c-0.311-0.753-0.398-1.537-0.196-2.326c0.111-0.432-0.05-0.489-0.346-0.589c-1.056-0.357-2.071-0.798-2.98-1.456
		c-0.088-0.064-0.168-0.139-0.252-0.209c0.11-0.076,0.224-0.147,0.329-0.229c0.271-0.212,0.56-0.408,0.794-0.656
		c0.071-0.075,0.022-0.315-0.037-0.452c-0.127-0.296-0.384-0.562-0.424-0.863c-0.052-0.393-0.295-0.518-0.572-0.661
		c-0.382-0.196-0.796-0.347-1.137-0.598c-0.251-0.185-0.405-0.5-0.65-0.819c0.216-0.034,0.328-0.054,0.44-0.07
		c1.687-0.244,3.356-0.57,4.977-1.106c0.696-0.23,0.67-0.242,0.535-0.963c-0.251-1.342-0.171-2.691,0.072-4.021
		c0.234-1.285,0.555-2.554,0.837-3.831c0.198-0.895,0.419-1.785,0.589-2.685c0.222-1.176,0.407-2.359,0.596-3.541
		c0.013-0.081-0.072-0.178-0.112-0.267c-0.087,0.047-0.196,0.074-0.256,0.144c-0.229,0.269-0.427,0.564-0.663,0.826
		c-0.81,0.9-1.632,1.79-2.449,2.684c0.035,0.008,0.07,0.016,0.105,0.024c-0.008,0.182-0.016,0.364-0.024,0.541
		c-0.195,0.032-0.365,0.04-0.523,0.09c-0.37,0.117-0.489,0.349-0.405,0.68c0.096,0.377,0.206,0.757,0.245,1.142
		c0.37,3.739-1.135,6.69-3.861,9.121c-0.125,0.112-0.27,0.201-0.405,0.301c-0.007-0.169,0.044-0.27,0.107-0.364
		c0.252-0.38,0.268-0.599-0.131-0.796c-0.347-0.171-0.842-0.303-1.175-0.183c-0.492,0.178-1.039,0.277-1.461,0.687
		c-0.495,0.48-1.153,0.802-1.606,1.312c-0.344,0.387-0.558,0.35-0.896,0.105c-0.158-0.115-0.342-0.193-0.503-0.305
		c-0.268-0.187-0.499-0.122-0.512,0.19c-0.022,0.542,0,1.087,0.018,1.63c0.009,0.266,0.138,0.438,0.397,0.572
		c0.532,0.275,0.534,0.694,0.041,1.027c-0.054,0.037-0.112,0.067-0.168,0.101c-0.627,0.38-1.261,0.749-1.878,1.145
		c-0.238,0.152-0.437,0.363-0.744,0.624c0.417-0.093,0.754-0.1,1.021-0.24c0.633-0.334,1.23-0.737,1.849-1.1
		c0.174-0.102,0.374-0.16,0.561-0.238c0.041,0.053,0.081,0.106,0.122,0.159c-0.147,0.222-0.301,0.44-0.439,0.667
		c-0.054,0.089-0.126,0.218-0.099,0.298c0.194,0.563,0.604,0.758,1.18,0.589c0.063-0.018,0.129-0.023,0.192-0.041
		c0.304-0.083,0.434,0.051,0.547,0.336c0.211,0.533,0.137,1.039-0.008,1.562c-0.194,0.698-0.425,1.379-0.675,2.051h1.545
		C306.883,90.439,306.898,90.343,306.911,90.247z"/>
	<path fill="none" d="M327.415,89.158c-0.262-0.844-0.644-1.65-0.968-2.465c-0.008,0.002,0.045-0.01,0.222-0.048
		c-0.293-0.149-0.48-0.244-0.788-0.4c-0.009,0.286-0.057,0.496-0.015,0.686c0.188,0.855,0.456,1.697,0.594,2.559
		c0.055,0.348,0.101,0.696,0.14,1.044h1.133C327.661,90.076,327.558,89.617,327.415,89.158z"/>
	<path fill="none" d="M323.159,46.564c-0.123-0.193-0.245-0.387-0.368-0.58c-0.053,0.036-0.106,0.072-0.159,0.108
		c0.138,0.182,0.277,0.365,0.415,0.547C323.084,46.614,323.122,46.589,323.159,46.564z"/>
	<path fill="none" d="M323.091,83.794c0.213,0.01,0.425,0.021,0.638,0.031c0.015-0.051,0.031-0.102,0.046-0.154
		c-0.121-0.176-0.242-0.353-0.442-0.646C323.229,83.357,323.16,83.575,323.091,83.794z"/>
	<path fill="#F2EFE4" d="M289.753,90.551c0.005-0.006,0.01-0.01,0.015-0.016H5.419v2h283.912
		C289.185,91.824,289.305,91.143,289.753,90.551z"/>
	<path fill="#F2EFE4" d="M340.315,74.693c-0.038-0.301-0.324-0.492-0.566-0.337c-0.298,0.191-0.586,0.433-0.802,0.712
		c-0.591,0.762-1.14,1.557-1.709,2.336c-0.393,0.537-0.793,1.07-1.189,1.604c-0.636,0.858-1.479,1.474-2.373,2.03
		c-0.03,0.018-0.073,0.015-0.155,0.029c0.223-0.385,0.46-0.725,0.627-1.097c0.971-2.156,1.363-4.374,0.52-6.663
		c-0.33-0.897-0.815-1.719-1.602-2.327c-0.559-0.432-1.18-0.529-1.851-0.438c-0.182,0.024-0.462,0.028-0.519,0.135
		c-0.151,0.286-0.234,0.617-0.288,0.94c-0.064,0.379-0.128,0.775-0.082,1.15c0.046,0.373-0.075,0.618-0.267,0.765
		c0.024,0.531,0.102,0.988,0.053,1.43c-0.109,0.998-0.109,1.973,0.222,2.938c0.094,0.275,0.058,0.594,0.089,0.892
		c0.089,0.852,0.176,1.704,0.276,2.555c0.028,0.236-0.057,0.379-0.269,0.457c-0.729,0.269-1.451,0.562-2.193,0.79
		c-0.259,0.08-0.575,0.042-0.852-0.011c-0.833-0.16-1.661-0.345-2.486-0.543c-0.175-0.042-0.328-0.179-0.58-0.323
		c0.378-0.154,0.648-0.281,0.928-0.375c1.123-0.377,1.857-1.188,2.545-2.11c0.538-0.722,0.603-1.556,0.756-2.358
		c0.523-2.738-0.241-5.205-1.733-7.491c-1.417-2.17-3.238-3.901-5.552-5.091c-0.348-0.179-0.717-0.32-1.079-0.471
		c-0.393-0.165-0.661-0.063-0.872,0.32c-0.274,0.495-0.594,0.582-1.078,0.313c-0.123-0.068-0.271-0.127-0.407-0.125
		c-0.155,0.003-0.349,0.039-0.45,0.138c-0.076,0.074-0.031,0.271-0.039,0.406c-0.692-0.285-0.922-0.661-0.842-1.403
		c0.01-0.089-0.042-0.192-0.086-0.279c-0.08-0.161-0.22-0.308-0.249-0.475c-0.024-0.137,0.078-0.296,0.124-0.445
		c0.109,0.062,0.218,0.124,0.362,0.206c0.366-1.432,1.257-2.512,2.569-3.317c-0.026,0.153-0.028,0.315-0.082,0.458
		c-0.169,0.452-0.374,0.89-0.533,1.345c-0.082,0.235-0.094,0.494-0.13,0.698c0.535,0.121,1.001,0.201,1.448,0.341
		c0.201,0.063,0.242,0.245,0.038,0.419c-0.294,0.25-0.59,0.502-0.848,0.787c-0.112,0.123-0.133,0.33-0.225,0.578
		c0.186-0.044,0.266-0.045,0.326-0.08c1.067-0.633,2.206-0.594,3.35-0.322c1.574,0.375,3.077,0.94,4.477,1.767
		c1.578,0.932,3.175,1.832,4.743,2.779c0.895,0.54,1.722,1.198,2.635,1.702c0.45,0.248,1.02,0.318,1.546,0.373
		c0.461,0.048,1.056-0.56,1.17-1.162c0.078-0.409,0.057-0.838,0.08-1.258c0.006-0.104-0.002-0.212,0.023-0.311
		c0.305-1.211,0.283-2.432,0.182-3.666c-0.065-0.79-0.136-1.579-0.498-2.281c-0.377-0.733-0.798-1.459-1.308-2.103
		c-0.405-0.511-0.932-0.953-1.476-1.321c-1.767-1.198-3.74-1.413-5.797-1.056c-1.737,0.301-3.437,0.753-4.973,1.643
		c-1.401,0.812-2.759,1.698-4.136,2.551c-0.061,0.037-0.121,0.075-0.181,0.113c-0.033-0.026-0.066-0.052-0.099-0.078
		c0.319-0.498,0.586-1.041,0.968-1.485c0.717-0.831,1.549-1.565,2.247-2.411c1.22-1.48,2.531-2.923,3.01-4.86
		c0.114-0.46,0.037-0.966,0.138-1.431c0.124-0.566,0.004-1.168,0.332-1.716c0.106-0.176-0.057-0.537-0.141-0.799
		c-0.146-0.454-0.428-0.878-0.254-1.392c0.016-0.048-0.027-0.118-0.049-0.175c-0.077-0.2-0.158-0.398-0.245-0.619
		c-0.019,0.012-0.107,0.067-0.165,0.104c-0.494-0.606-0.95-1.227-1.471-1.788c-0.681-0.732-1.507-1.169-2.56-1.062
		c-0.331,0.033-0.688,0.019-1.002-0.076c-0.27-0.082-0.497-0.31-0.765-0.488c-0.178-0.042-0.418-0.062-0.627-0.154
		c-0.976-0.43-2.185,0.112-2.499,1.136c-0.39,1.273-0.398,2.56-0.076,3.84c0.831,3.311,1.026,6.668,0.769,10.061
		c-0.051,0.672-0.098,1.344-0.147,2.016c-0.045,0.004-0.09,0.007-0.135,0.011c-0.184-0.521-0.383-1.037-0.548-1.564
		c-0.774-2.467-1.993-4.658-3.932-6.41c-1.107-1.001-2.457-1.411-3.895-1.589c-0.659-0.081-1.337-0.21-1.986-0.137
		c-1.358,0.153-2.714,0.379-4.049,0.671c-0.501,0.11-0.999,0.42-1.399,0.757c-0.615,0.518-1.136,1.145-1.711,1.713
		c-0.248,0.244-0.182,0.477,0.043,0.627c0.366,0.244,0.765,0.442,1.163,0.633c1.82,0.871,3.769,1.312,5.735,1.695
		c1.413,0.276,2.689,0.904,3.852,1.712c1.329,0.924,2.597,1.939,3.857,2.958c0.486,0.393,0.876,0.904,1.309,1.361
		c-0.029,0.034-0.057,0.067-0.086,0.101c-0.388-0.172-0.769-0.362-1.166-0.511c-1.225-0.459-2.478-0.784-3.767-1.046
		c-1.748-0.356-3.441-0.184-5.138,0.149c-1.949,0.381-3.765,1.114-5.321,2.377c-0.717,0.582-1.158,1.389-1.372,2.282
		c-0.125,0.524-0.204,1.091-0.146,1.621c0.088,0.801,0.305,1.59,0.488,2.379c0.033,0.141,0.14,0.293,0.256,0.383
		c0.775,0.596,1.569,1.168,2.343,1.766c0.308,0.238,0.565,0.543,0.874,0.781c0.412,0.319,0.856,0.596,1.275,0.906
		c0.128,0.095,0.28,0.222,0.319,0.362c0.315,1.134,0.617,2.272,0.897,3.415c0.08,0.327,0.049,0.68,0.118,1.011
		c0.2,0.957,0.425,1.909,0.639,2.864c0.028,0.123,0.048,0.247,0.071,0.371c-0.03,0.029-0.06,0.058-0.091,0.087
		c-0.134-0.093-0.292-0.166-0.399-0.283c-0.769-0.839-1.496-1.719-2.296-2.527c-1.793-1.811-3.704-3.472-6.061-4.54
		c-1.087-0.492-2.218-0.539-3.374-0.462c-0.078,0.005-0.157,0.056-0.23,0.045c-1.11-0.168-1.964,0.554-2.926,0.878
		c-0.414,0.14-0.741,0.564-1.084,0.884c-0.419,0.392-0.843,0.785-1.204,1.227c-0.205,0.251-0.307,0.595-0.42,0.909
		c-0.099,0.274-0.151,0.565-0.216,0.851c-0.013,0.059-0.006,0.131,0.016,0.189c0.331,0.875,0.438,1.785,0.516,2.715
		c0.093,1.122,0.289,2.279,1.136,3.094c0.53,0.511,1.233,0.872,1.909,1.195c1.336,0.64,2.795,0.629,4.233,0.608
		c1.489-0.021,2.977-0.101,4.464-0.181c0.384-0.021,0.763-0.138,1.173-0.169c-0.454,0.581-0.661,1.344-1.573,1.517
		c-1.721,0.325-3.433,0.707-5.131,1.139c-1.207,0.308-2.266,0.93-3.038,1.938c-0.005,0.006-0.01,0.01-0.015,0.016
		c-0.449,0.592-0.57,1.273-0.423,1.984c0.015,0.071,0.017,0.141,0.038,0.213c0.044,0.155,0.22,0.269,0.292,0.422
		c0.202,0.43,0.351,0.886,0.576,1.302c0.292,0.538,0.623,1.057,0.967,1.564c0.112,0.166,0.309,0.279,0.48,0.399
		c0.705,0.497,1.466,0.929,2.108,1.497c0.63,0.557,1.312,0.901,2.128,0.983c1.471,0.147,2.875-0.018,4.096-0.961
		c0.956-0.738,1.699-1.66,2.335-2.674c0.557-0.888,1.045-1.806,1.489-2.744c0.31-0.655,0.597-1.32,0.851-2
		c0.251-0.672,0.481-1.354,0.675-2.051c0.145-0.523,0.22-1.029,0.008-1.562c-0.113-0.285-0.243-0.419-0.547-0.336
		c-0.063,0.017-0.129,0.022-0.192,0.041c-0.576,0.169-0.986-0.026-1.18-0.589c-0.027-0.08,0.045-0.209,0.099-0.298
		c0.138-0.228,0.292-0.446,0.439-0.667c-0.041-0.053-0.081-0.106-0.122-0.159c-0.188,0.078-0.388,0.136-0.561,0.238
		c-0.619,0.363-1.216,0.766-1.849,1.1c-0.267,0.141-0.604,0.148-1.021,0.24c0.306-0.26,0.506-0.472,0.744-0.624
		c0.617-0.395,1.251-0.765,1.878-1.145c0.056-0.034,0.114-0.065,0.168-0.101c0.493-0.333,0.491-0.752-0.041-1.027
		c-0.259-0.134-0.388-0.305-0.397-0.572c-0.018-0.543-0.04-1.087-0.018-1.63c0.013-0.313,0.245-0.377,0.512-0.19
		c0.161,0.112,0.345,0.19,0.503,0.305c0.338,0.246,0.552,0.282,0.896-0.105c0.453-0.51,1.111-0.832,1.606-1.312
		c0.422-0.41,0.969-0.509,1.461-0.687c0.332-0.12,0.828,0.011,1.175,0.183c0.399,0.197,0.383,0.416,0.131,0.796
		c-0.062,0.094-0.114,0.195-0.107,0.364c0.136-0.1,0.28-0.189,0.405-0.301c2.726-2.431,4.231-5.382,3.861-9.121
		c-0.038-0.385-0.148-0.765-0.245-1.142c-0.084-0.331,0.034-0.563,0.405-0.68c0.157-0.05,0.328-0.058,0.523-0.09
		c0.008-0.177,0.016-0.359,0.024-0.541c-0.035-0.008-0.07-0.016-0.105-0.024c0.817-0.894,1.639-1.784,2.449-2.684
		c0.236-0.262,0.434-0.557,0.663-0.826c0.06-0.07,0.169-0.097,0.256-0.144c0.04,0.09,0.125,0.186,0.112,0.267
		c-0.189,1.182-0.374,2.365-0.596,3.541c-0.17,0.9-0.391,1.79-0.589,2.685c-0.283,1.276-0.603,2.546-0.837,3.831
		c-0.243,1.33-0.323,2.678-0.072,4.021c0.135,0.721,0.16,0.733-0.535,0.963c-1.621,0.536-3.29,0.862-4.977,1.106
		c-0.112,0.016-0.224,0.035-0.44,0.07c0.244,0.319,0.399,0.634,0.65,0.819c0.34,0.251,0.755,0.402,1.137,0.598
		c0.277,0.142,0.52,0.268,0.572,0.661c0.04,0.3,0.297,0.567,0.424,0.863c0.058,0.137,0.108,0.376,0.037,0.452
		c-0.234,0.248-0.523,0.444-0.794,0.656c-0.105,0.082-0.219,0.153-0.329,0.229c0.084,0.07,0.164,0.146,0.252,0.209
		c0.909,0.658,1.924,1.1,2.98,1.456c0.296,0.1,0.456,0.157,0.346,0.589c-0.202,0.79-0.116,1.574,0.196,2.326
		c0.052,0.125,0.095,0.25,0.159,0.373c0.184,0.349,0.279,0.745,0.414,1.119c-0.04,0.024-0.079,0.047-0.119,0.071
		c-0.264-0.321-0.526-0.644-0.791-0.963c-0.166-0.199-0.329-0.4-0.492-0.6c-0.374-0.459-0.75-0.917-1.151-1.35
		c-0.485-0.524-1.039-0.985-1.556-1.48c-0.226-0.217-0.507-0.416-0.636-0.684c-0.283-0.585-0.743-0.703-1.253-0.66
		c-0.139,0.637-0.271,1.258-0.412,1.877c-0.06,0.265-0.192,0.39-0.507,0.33c-0.22-0.042-0.479,0-0.694,0.079
		c-0.378,0.14-0.679-0.054-0.759-0.532c-0.063-0.377-0.137-0.751-0.206-1.127c-0.032,0.002-0.065,0.005-0.097,0.007
		c-0.114,1.085-0.208,2.172-0.347,3.253c-0.012,0.096-0.028,0.192-0.04,0.287c-0.087,0.667-0.184,1.334-0.279,2
		c-0.104,0.727-0.204,1.455-0.305,2.183c-0.14,1.009-0.41,2.025-0.165,3.038c0.129,0.533,0.452,1.018,0.69,1.524
		c0.015,0.032,0.055,0.072,0.086,0.075c0.666,0.059,1.262,0.511,1.981,0.305c0.872-0.25,1.768-0.421,2.635-0.688
		c0.415-0.128,0.78-0.412,1.179-0.603c0.281-0.135,0.588-0.216,0.871-0.347c0.593-0.276,1.248-0.257,1.865-0.41
		c0.862-0.215,1.568-0.688,2.027-1.433c0.181-0.294,0.141-0.726,0.189-1.097c0.012-0.095-0.026-0.197-0.048-0.348
		c1.078,0.616,2.169,0.878,3.382,0.624c-0.141,0.101-0.278,0.208-0.425,0.301c-0.887,0.564-1.821,1.015-2.831,1.335
		c-0.536,0.17-1.061,0.458-1.511,0.798c-0.681,0.513-0.746,1.25-0.475,1.998c0.238,0.001,0.506-0.022,0.768,0.008
		c1.969,0.226,3.912,0.204,5.814-0.466c1.956-0.689,3.138-2.103,3.841-3.982c0.347-0.927,0.498-1.867,0.53-2.813
		c0.022-0.664-0.017-1.332-0.092-2c-0.039-0.348-0.084-0.696-0.14-1.044c-0.137-0.863-0.406-1.704-0.594-2.559
		c-0.042-0.19,0.006-0.4,0.015-0.686c0.308,0.157,0.495,0.251,0.788,0.4c-0.177,0.038-0.23,0.049-0.222,0.048
		c0.324,0.814,0.706,1.621,0.968,2.465c0.143,0.459,0.246,0.918,0.317,1.377c0.104,0.668,0.128,1.335,0.077,2
		c-0.065,0.854-0.252,1.704-0.58,2.549c-0.047,0.122-0.084,0.257-0.163,0.355c-0.45,0.558,0.081,1.128,0.628,1.245
		c0.186,0.04,0.531-0.165,0.638-0.352c0.334-0.585,0.583-1.217,0.878-1.826c0.065-0.135,0.159-0.27,0.274-0.365
		c0.651-0.538,1.317-1.059,1.959-1.606c0.661-0.564,1.296-1.155,1.86-1.825c0.041-0.048,0.077-0.101,0.117-0.15
		c0.304-0.375,0.589-0.77,0.835-1.183c0.282-0.474,0.187-0.76-0.289-1.051c-0.435-0.266-0.887-0.503-1.332-0.753
		c-0.057-0.032-0.123-0.056-0.169-0.1c-0.495-0.479-1.122-0.757-1.693-1.12c-0.585-0.372-1.17-0.745-1.754-1.12
		c-0.085-0.055-0.161-0.125-0.221-0.285c0.193,0.021,0.396,0.01,0.577,0.068c1.112,0.356,2.233,0.675,3.403,0.751
		c1.831,0.118,3.289-0.561,4.56-1.912c0.675-0.718,1.082-1.571,1.654-2.331c0.69-0.917,0.975-2.02,1.14-3.134
		c0.052-0.351-0.039-0.716,0.112-1.08c0.059-0.143-0.148-0.375-0.136-0.561c0.034-0.544,0.119-1.085,0.181-1.627
		C340.302,74.978,340.333,74.832,340.315,74.693z M322.791,45.984c0.123,0.193,0.245,0.387,0.368,0.58
		c-0.038,0.025-0.075,0.05-0.113,0.076c-0.138-0.182-0.277-0.365-0.415-0.547C322.685,46.056,322.738,46.02,322.791,45.984z
		 M323.729,83.825c-0.213-0.01-0.425-0.021-0.638-0.031c0.069-0.219,0.138-0.437,0.242-0.768c0.2,0.293,0.321,0.469,0.442,0.646
		C323.76,83.723,323.744,83.774,323.729,83.825z"/>
</g>
<g id="Calque_2">
</g>
<g id="Calque_3">
</g>
</svg>
